<?xml version="1.0" standalone="no"?>
<!DOCTYPE svg PUBLIC "-//W3C//DTD SVG 20010904//EN"
 "http://www.w3.org/TR/2001/REC-SVG-20010904/DTD/svg10.dtd">
<svg version="1.0" xmlns="http://www.w3.org/2000/svg"
 width="1024.000000pt" height="1024.000000pt" viewBox="0 0 1024.000000 1024.000000"
 preserveAspectRatio="xMidYMid meet">
<metadata>
Created by potrace 1.11, written by Peter Selinger 2001-2013
</metadata>
<g transform="translate(0.000000,1024.000000) scale(0.100000,-0.100000)"
fill="#000000" stroke="none">
<path d="M2304 9809 c-2 -3 -25 -7 -51 -8 -71 -3 -73 -4 -67 -13 4 -7 -34 -13
-58 -9 -5 0 -8 -3 -8 -9 0 -5 -12 -10 -26 -10 -14 0 -23 -4 -19 -10 3 -5 -3
-10 -14 -10 -12 0 -21 -5 -21 -11 0 -5 -4 -7 -10 -4 -5 3 -10 1 -10 -6 0 -7
-3 -10 -6 -6 -3 3 -15 -3 -27 -14 -11 -10 -28 -19 -36 -19 -14 0 -14 -1 -1
-10 12 -8 10 -10 -8 -10 -13 0 -21 -4 -18 -8 3 -5 -5 -15 -18 -22 -13 -7 -29
-23 -36 -36 -7 -13 -17 -21 -22 -18 -5 3 -8 2 -7 -3 3 -20 -2 -34 -11 -28 -6
3 -10 -4 -10 -16 0 -12 -3 -19 -6 -16 -8 7 -54 -79 -54 -100 0 -7 -4 -13 -8
-13 -5 0 -9 -6 -9 -12 -1 -23 -8 -43 -18 -50 -6 -5 -4 -8 5 -8 12 0 12 -2 2
-8 -7 -5 -13 -29 -14 -55 0 -28 -5 -47 -12 -47 -6 0 -5 -4 3 -9 7 -5 9 -11 5
-14 -11 -6 -12 -4267 -1 -4284 4 -6 4 -14 0 -16 -10 -7 -10 -1088 0 -1104 4
-6 4 -14 0 -16 -10 -7 -10 -448 0 -464 4 -6 4 -14 -1 -17 -10 -6 -9 -126 1
-143 4 -6 4 -14 0 -16 -10 -6 -10 -448 -1 -463 4 -6 4 -14 0 -18 -3 -4 -7 -47
-7 -96 -1 -50 3 -84 7 -77 6 9 8 8 8 -4 0 -9 -3 -19 -7 -23 -4 -4 -8 -65 -8
-136 0 -71 3 -124 7 -117 5 8 8 7 8 -4 0 -9 -3 -19 -7 -23 -4 -4 -8 -110 -8
-236 0 -126 3 -223 7 -217 5 8 8 7 8 -4 0 -9 -3 -19 -7 -23 -4 -4 -8 -47 -8
-96 -1 -50 3 -84 7 -77 6 9 8 8 8 -4 0 -9 -3 -19 -7 -23 -10 -10 -11 -306 -1
-312 4 -3 8 -13 8 -22 0 -12 -3 -13 -8 -5 -4 7 -8 -16 -7 -51 0 -35 3 -62 8
-59 4 2 7 -1 7 -6 0 -6 -6 -11 -12 -11 -10 0 -10 -2 -1 -8 6 -4 13 -33 14 -64
1 -32 6 -55 11 -52 4 3 8 -9 8 -26 0 -17 7 -38 15 -47 8 -8 13 -19 10 -24 -4
-5 -1 -9 5 -9 6 0 9 -4 5 -9 -3 -5 2 -16 10 -24 8 -9 15 -23 15 -31 0 -9 5
-16 10 -16 6 0 10 -7 10 -16 0 -8 4 -12 10 -9 5 3 10 -1 10 -10 0 -10 5 -13
12 -9 6 4 8 3 5 -3 -8 -12 27 -56 37 -46 3 3 6 1 6 -6 0 -7 7 -19 15 -27 8 -9
15 -12 15 -7 0 4 7 -3 16 -15 8 -12 19 -20 23 -18 4 3 13 -4 21 -14 8 -10 17
-17 21 -15 4 3 12 -2 19 -10 7 -8 23 -15 37 -15 14 0 21 -4 18 -10 -3 -6 3
-10 14 -10 12 0 21 -4 21 -10 0 -5 13 -10 29 -10 17 0 33 -4 36 -10 3 -5 26
-10 51 -10 34 0 43 -3 38 -12 -6 -10 -5 -10 8 -1 8 7 18 9 22 5 11 -10 5578
-10 5593 0 6 5 14 5 18 -2 3 -6 12 -7 18 -3 7 4 35 9 62 11 28 2 54 8 60 13 5
5 22 9 37 9 15 0 28 5 28 10 0 6 8 10 18 10 9 0 28 9 42 20 14 11 31 20 38 20
7 0 25 11 39 24 15 14 31 22 36 19 6 -3 7 -1 3 5 -4 7 -1 12 9 12 9 0 13 5 10
10 -3 6 -1 10 5 10 14 0 60 46 60 60 0 6 5 8 10 5 6 -4 10 -3 9 2 -3 20 2 34
11 28 6 -4 10 6 10 22 0 22 2 25 10 13 8 -12 10 -11 10 5 0 11 9 27 20 35 14
10 16 16 7 22 -9 6 -9 8 1 8 6 0 12 11 12 24 0 14 5 28 10 31 6 3 10 17 10 31
0 14 4 23 8 20 4 -2 8 5 9 17 1 12 2 46 3 75 2 36 6 49 12 40 5 -8 7 -3 4 16
-3 16 -8 31 -10 34 -3 3 -1 11 5 18 7 9 7 19 0 33 -6 11 -7 22 -3 25 10 6 10
46 0 61 -4 6 -3 17 2 25 5 8 5 21 -1 31 -5 10 -5 20 0 23 11 7 11 56 0 77 -4
9 -5 19 -2 23 11 10 12 37 2 30 -5 -3 -9 2 -9 11 0 9 4 14 9 11 10 -7 9 13 -2
31 -4 6 -3 14 1 17 10 6 8 48 -2 65 -4 5 -2 12 3 15 10 7 9 25 -1 41 -4 6 -3
17 2 25 5 8 5 21 -1 31 -5 11 -5 20 0 23 10 7 9 65 -1 81 -4 6 -3 17 2 25 5 8
5 21 -1 31 -5 10 -5 20 0 23 11 7 11 56 0 78 -5 9 -5 19 -1 22 10 6 10 46 0
61 -4 6 -3 17 2 25 5 8 5 21 -1 31 -5 10 -5 20 0 23 11 7 11 56 0 77 -4 9 -5
19 -2 23 11 11 12 39 2 57 -5 10 -5 20 -1 23 10 6 10 46 0 61 -4 6 -3 17 2 25
5 8 5 21 -1 31 -5 10 -5 20 0 23 11 7 11 56 0 77 -4 9 -5 19 -2 23 11 11 12
39 2 57 -5 10 -5 20 -1 23 10 6 10 46 0 61 -4 6 -3 17 2 25 5 8 5 21 -1 31 -5
10 -5 20 0 23 11 7 11 56 0 77 -4 9 -5 19 -2 23 11 11 12 39 2 57 -5 10 -5 20
-1 23 10 6 10 46 0 61 -4 6 -3 17 2 25 5 8 5 21 -1 31 -5 10 -5 20 0 23 11 7
11 56 0 78 -5 9 -5 19 -1 22 10 6 10 46 0 61 -4 6 -3 17 2 25 5 8 5 21 -1 31
-5 11 -5 20 0 23 10 7 9 65 -1 81 -4 6 -3 17 2 25 5 8 5 21 -1 31 -5 10 -5 20
0 23 5 3 8 17 9 32 0 18 -3 22 -9 13 -6 -10 -9 -8 -9 9 0 13 4 21 9 18 10 -7
9 13 -2 31 -4 6 -3 14 1 17 10 6 8 54 -2 63 -3 4 -1 12 5 19 7 9 7 19 0 33 -6
11 -7 22 -3 25 10 6 10 46 0 61 -4 6 -3 17 2 25 5 8 5 21 -1 31 -5 10 -5 20 0
23 11 7 11 56 0 77 -4 9 -5 19 -2 23 11 10 12 37 2 30 -5 -3 -9 2 -9 11 0 9 4
14 9 11 10 -7 9 13 -2 31 -4 6 -3 14 1 17 10 6 8 48 -2 65 -4 5 -2 12 3 15 10
7 9 25 -1 41 -4 6 -3 17 2 25 5 8 5 21 -1 31 -5 11 -5 20 0 23 10 7 9 65 -1
81 -4 6 -3 17 2 25 5 8 5 21 -1 31 -5 10 -5 20 0 23 11 7 11 56 0 78 -5 9 -5
19 -1 22 10 6 9 52 -1 62 -10 10 -9 26 1 20 4 -2 8 6 8 19 0 13 -4 21 -8 19
-10 -6 -11 10 0 20 9 10 10 156 0 150 -5 -3 -8 0 -8 5 0 6 5 11 10 11 6 0 10
5 10 11 0 5 -6 7 -12 3 -8 -5 -7 0 2 11 9 11 10 16 3 11 -14 -8 -18 6 -6 18 4
4 8 25 9 48 1 26 -1 36 -7 27 -7 -11 -9 -11 -9 3 0 9 4 19 8 22 11 6 9 186 -1
203 -4 6 -4 14 1 17 10 6 9 66 -1 83 -4 6 -3 14 1 17 7 4 9 101 2 101 -1 0 -3
8 -5 18 -2 9 1 15 6 11 5 -3 9 0 9 5 0 6 -4 11 -10 11 -5 0 -10 5 -10 11 0 5
4 8 9 4 9 -5 9 2 1 40 -1 6 -1 12 0 15 7 14 4 602 -3 607 -4 2 -4 10 0 16 4 7
8 259 8 561 0 430 -3 550 -12 553 -7 3 -10 9 -7 14 3 5 -2 9 -11 9 -9 0 -13 5
-10 10 3 6 -1 10 -9 10 -8 0 -18 9 -21 21 -4 11 -9 18 -12 15 -3 -3 -14 6 -25
19 -11 14 -27 25 -36 26 -10 0 -12 3 -5 5 7 3 -4 22 -30 48 -26 27 -45 38 -49
32 -4 -6 -8 -1 -8 11 0 13 -3 22 -7 21 -5 -1 -25 15 -46 35 -21 20 -36 37 -33
37 3 0 -11 16 -31 35 -20 19 -41 35 -46 35 -4 0 -6 4 -2 9 3 5 -4 12 -15 16
-11 3 -20 10 -20 15 0 10 -41 54 -54 57 -4 1 -17 15 -29 30 -41 52 -65 73 -70
60 -3 -7 -6 -5 -6 5 -1 15 -51 76 -51 62 0 -3 -17 12 -37 33 -20 21 -36 41
-35 46 1 4 -8 7 -21 7 -12 0 -17 4 -11 8 6 4 -6 23 -33 50 -24 23 -43 37 -43
30 0 -7 -7 1 -16 19 -9 17 -30 38 -47 47 -18 9 -26 16 -19 16 7 0 -7 19 -30
43 -27 27 -46 39 -50 33 -5 -7 -8 -4 -8 7 0 10 -7 20 -15 23 -8 3 -17 15 -21
26 -3 11 -8 18 -10 15 -4 -4 -64 51 -74 69 -10 16 -51 54 -71 65 -11 6 -19 13
-16 15 2 3 -19 29 -47 58 -32 33 -54 49 -58 42 -5 -7 -8 -4 -8 7 0 10 -7 20
-15 23 -8 3 -17 15 -21 26 -3 11 -8 17 -11 14 -3 -3 -14 6 -25 19 -11 14 -27
25 -36 25 -11 0 -13 3 -6 8 7 4 -10 27 -45 61 -31 30 -57 54 -58 53 -1 0 -18
15 -38 34 -20 19 -34 34 -31 34 3 0 -11 16 -31 35 -20 19 -41 35 -46 35 -4 0
-5 5 -2 10 3 6 2 10 -2 10 -5 0 -26 16 -47 35 -21 19 -36 35 -33 35 10 0 -42
49 -64 61 -11 6 -19 13 -16 15 2 3 -19 29 -47 58 -32 33 -54 49 -58 42 -5 -7
-8 -4 -8 7 0 10 -7 20 -15 23 -8 3 -17 15 -21 26 -3 11 -8 17 -11 14 -3 -3
-14 6 -25 19 -11 14 -27 25 -36 25 -10 0 -13 3 -6 8 6 4 -6 23 -33 50 -24 23
-43 37 -43 30 0 -7 -7 1 -15 17 -9 17 -31 41 -50 54 -19 13 -32 27 -29 32 3 5
-5 9 -18 10 -13 0 -18 3 -11 6 12 4 -62 83 -79 83 -4 0 -8 5 -8 11 0 6 -6 17
-14 25 -11 11 -16 11 -19 1 -4 -8 -6 -8 -6 2 -1 8 -18 31 -38 52 -21 21 -50
51 -65 68 -14 16 -29 27 -32 24 -3 -4 -6 1 -6 9 0 9 -8 19 -17 24 -20 8 -1772
13 -1788 5 -18 -10 -35 -10 -29 0 3 5 -2 9 -11 9 -9 0 -14 -4 -11 -9 4 -5 -2
-8 -11 -6 -10 2 -18 4 -18 5 0 1 -8 3 -18 5 -9 2 -15 0 -12 -5 6 -9 -15 -8
-31 3 -6 3 -14 3 -18 0 -9 -10 -37 -13 -31 -4 5 10 -76 7 -92 -2 -6 -4 -14 -3
-18 3 -4 6 -12 7 -18 3 -16 -10 -38 -13 -33 -4 3 4 -6 7 -19 7 -13 0 -22 -3
-19 -7 5 -9 -17 -6 -32 4 -6 3 -14 3 -18 0 -4 -4 -17 -8 -29 -10 -18 -2 -19
-1 -7 7 11 8 9 9 -12 6 -15 -3 -32 -7 -37 -10 -5 -4 -12 -2 -16 4 -4 6 -12 7
-18 3 -17 -10 -55 -15 -40 -5 7 4 -16 8 -51 7 -36 0 -62 -3 -60 -7 5 -8 -17
-5 -32 5 -6 3 -14 3 -18 0 -4 -4 -17 -8 -29 -10 -18 -2 -19 -1 -7 7 11 8 9 9
-12 6 -15 -3 -32 -7 -37 -10 -5 -4 -12 -2 -16 4 -4 6 -12 7 -18 3 -7 -4 -21
-9 -32 -10 -16 -3 -17 -1 -5 7 11 7 7 8 -15 5 -17 -2 -30 -4 -30 -5 0 -1 -8
-3 -18 -5 -9 -2 -15 1 -11 6 3 5 -2 9 -11 9 -9 0 -14 -4 -11 -9 4 -5 -2 -8
-11 -6 -10 2 -18 4 -18 5 0 1 -8 3 -18 5 -9 2 -15 0 -12 -5 6 -9 -15 -8 -31 3
-6 3 -14 3 -18 0 -9 -10 -37 -13 -31 -4 5 10 -76 7 -92 -2 -6 -4 -14 -3 -18 3
-4 6 -12 7 -18 3 -7 -4 -21 -9 -32 -10 -16 -3 -17 -1 -5 7 11 8 9 9 -12 6 -15
-3 -32 -7 -37 -10 -5 -4 -12 -2 -16 4 -4 6 -12 7 -18 3 -16 -10 -38 -13 -33
-4 3 3 -15 7 -39 7 -24 0 -42 -4 -39 -7 5 -9 -17 -6 -32 4 -6 3 -14 3 -18 0
-4 -4 -17 -8 -29 -10 -18 -2 -19 -1 -7 7 11 8 9 9 -12 6 -15 -3 -32 -7 -37
-10 -5 -4 -12 -2 -16 4 -4 6 -12 7 -18 3 -16 -10 -55 -15 -40 -5 6 4 -29 7
-79 7 -49 1 -91 -2 -94 -6z m6223 -5341 c-3 -8 -6 -5 -6 6 -1 11 2 17 5 13 3
-3 4 -12 1 -19z m0 -560 c-3 -8 -6 -5 -6 6 -1 11 2 17 5 13 3 -3 4 -12 1 -19z
m0 -800 c-3 -8 -6 -5 -6 6 -1 11 2 17 5 13 3 -3 4 -12 1 -19z m0 -320 c-3 -8
-6 -5 -6 6 -1 11 2 17 5 13 3 -3 4 -12 1 -19z m0 -320 c-3 -8 -6 -5 -6 6 -1
11 2 17 5 13 3 -3 4 -12 1 -19z m0 -320 c-3 -8 -6 -5 -6 6 -1 11 2 17 5 13 3
-3 4 -12 1 -19z m0 -240 c-3 -8 -6 -5 -6 6 -1 11 2 17 5 13 3 -3 4 -12 1 -19z
m0 -560 c-3 -8 -6 -5 -6 6 -1 11 2 17 5 13 3 -3 4 -12 1 -19z"/>
</g>
</svg>
