<?xml version="1.0" standalone="no"?>
<!DOCTYPE svg PUBLIC "-//W3C//DTD SVG 20010904//EN"
 "http://www.w3.org/TR/2001/REC-SVG-20010904/DTD/svg10.dtd">
<svg version="1.0" xmlns="http://www.w3.org/2000/svg"
 width="1200.000000pt" height="1200.000000pt" viewBox="0 0 1200.000000 1200.000000"
 preserveAspectRatio="xMidYMid meet">
<metadata>
Created by potrace 1.11, written by Peter Selinger 2001-2013
</metadata>
<g transform="translate(0.000000,1200.000000) scale(0.100000,-0.100000)"
fill="#000000" stroke="none">
<path d="M1106 11882 c-2 -1 -34 -3 -72 -4 -346 -5 -633 -216 -744 -548 -12
-36 -23 -72 -25 -81 -10 -49 -17 -100 -20 -152 -2 -32 -6 -61 -8 -64 -3 -2 -1
-18 3 -34 5 -17 5 -31 -1 -35 -5 -3 -7 -10 -3 -15 5 -9 6 -34 3 -156 -1 -28 2
-56 6 -62 3 -6 1 -11 -5 -11 -6 0 -8 -5 -5 -10 7 -11 8 -79 2 -135 -1 -16 1
-42 5 -57 3 -15 3 -30 -2 -33 -5 -3 -5 -18 -1 -33 4 -15 5 -38 1 -52 -4 -14
-3 -36 0 -50 4 -14 4 -34 0 -45 -4 -11 -4 -29 0 -40 4 -11 4 -31 0 -45 -4 -14
-3 -34 1 -46 4 -11 4 -27 -1 -34 -5 -7 -4 -24 0 -36 6 -14 5 -26 0 -29 -5 -3
-5 -18 0 -35 5 -18 5 -32 -1 -36 -5 -3 -7 -10 -3 -15 5 -9 6 -34 3 -156 -1
-28 2 -56 6 -62 3 -6 1 -11 -5 -11 -6 0 -8 -5 -5 -10 7 -11 8 -79 2 -135 -1
-16 1 -42 5 -57 3 -15 3 -30 -2 -33 -5 -3 -5 -18 -1 -33 4 -15 5 -38 1 -52 -4
-14 -3 -36 0 -50 4 -14 4 -34 0 -45 -4 -11 -4 -29 0 -40 4 -11 4 -31 0 -45 -4
-14 -3 -34 1 -46 4 -11 4 -27 -1 -34 -5 -7 -4 -24 0 -36 6 -14 5 -26 0 -29 -5
-3 -5 -18 0 -35 5 -18 5 -32 -1 -36 -5 -3 -7 -10 -3 -15 5 -9 6 -34 3 -156 -1
-28 2 -56 6 -62 3 -6 1 -11 -5 -11 -6 0 -8 -5 -5 -10 7 -11 8 -79 2 -135 -1
-16 1 -42 5 -57 3 -15 3 -30 -2 -33 -5 -3 -5 -18 -1 -33 4 -15 5 -38 1 -52 -4
-14 -3 -36 0 -50 4 -14 4 -34 0 -45 -4 -11 -4 -29 0 -40 4 -11 4 -31 0 -45 -4
-14 -3 -34 1 -46 4 -11 4 -27 -1 -34 -5 -7 -4 -24 0 -36 6 -14 5 -26 0 -29 -5
-3 -5 -18 0 -35 5 -18 5 -32 -1 -36 -5 -3 -7 -10 -3 -15 5 -9 6 -34 3 -156 -1
-28 2 -56 6 -62 3 -6 1 -11 -5 -11 -6 0 -8 -5 -5 -10 7 -11 8 -79 2 -135 -1
-16 1 -42 5 -57 3 -15 3 -30 -2 -33 -5 -3 -5 -18 -1 -33 4 -15 5 -38 1 -52 -4
-14 -3 -36 0 -50 4 -14 4 -34 0 -45 -4 -11 -4 -29 0 -40 4 -11 4 -31 0 -45 -4
-14 -3 -34 1 -46 4 -11 4 -27 -1 -34 -5 -7 -4 -24 0 -36 6 -14 5 -26 0 -29 -5
-3 -5 -18 0 -35 5 -18 5 -32 -1 -36 -5 -3 -7 -10 -3 -15 5 -9 6 -34 3 -156 -1
-28 2 -56 6 -62 3 -6 1 -11 -5 -11 -6 0 -8 -5 -5 -10 7 -11 8 -79 2 -135 -1
-16 1 -42 5 -57 3 -15 3 -30 -2 -33 -5 -3 -5 -18 -1 -33 4 -15 5 -38 1 -52 -4
-14 -3 -36 0 -50 4 -14 4 -34 0 -45 -4 -11 -4 -29 0 -40 4 -11 4 -31 0 -45 -4
-14 -3 -34 1 -46 4 -11 4 -27 -1 -34 -5 -7 -4 -24 0 -36 6 -14 5 -26 0 -29 -5
-3 -5 -18 0 -35 5 -18 5 -32 -1 -36 -5 -3 -7 -10 -3 -15 5 -9 6 -34 3 -156 -1
-28 2 -56 6 -62 3 -6 1 -11 -5 -11 -6 0 -8 -5 -5 -10 7 -11 8 -79 2 -135 -1
-16 1 -42 5 -57 3 -15 3 -30 -2 -33 -5 -3 -5 -18 -1 -33 4 -15 5 -38 1 -52 -4
-14 -3 -36 0 -50 4 -14 4 -34 0 -45 -4 -11 -4 -29 0 -40 4 -11 4 -31 0 -45 -4
-14 -3 -34 1 -46 4 -11 4 -27 -1 -34 -5 -7 -4 -24 0 -36 6 -14 5 -26 0 -29 -5
-3 -5 -18 0 -35 5 -18 5 -32 -1 -36 -5 -3 -7 -10 -3 -15 5 -9 6 -34 3 -156 -1
-28 2 -56 6 -62 3 -6 1 -11 -5 -11 -6 0 -8 -5 -5 -10 7 -11 8 -79 2 -135 -1
-16 1 -42 5 -57 3 -15 3 -30 -2 -33 -5 -3 -5 -18 -1 -33 4 -15 5 -38 1 -52 -4
-14 -3 -36 0 -50 4 -14 4 -34 0 -45 -4 -11 -4 -29 0 -40 4 -11 4 -31 0 -45 -4
-14 -3 -34 1 -46 4 -11 4 -27 -1 -34 -5 -7 -4 -24 0 -36 6 -14 5 -26 0 -29 -5
-3 -5 -18 0 -35 5 -18 5 -32 -1 -36 -5 -3 -7 -10 -3 -15 5 -9 6 -34 3 -156 -1
-28 2 -56 6 -62 3 -6 1 -11 -5 -11 -6 0 -8 -5 -5 -10 7 -11 8 -79 2 -135 -1
-16 1 -42 5 -57 3 -15 3 -30 -2 -33 -5 -3 -5 -18 -1 -33 4 -15 5 -38 1 -52 -4
-14 -3 -36 0 -50 4 -14 4 -34 0 -45 -4 -11 -4 -29 0 -40 4 -11 4 -31 0 -45 -4
-14 -3 -34 1 -46 4 -11 4 -27 -1 -34 -5 -7 -4 -24 0 -36 6 -14 5 -26 0 -29 -5
-3 -5 -18 0 -35 5 -18 5 -32 -1 -36 -5 -3 -7 -10 -3 -15 5 -9 6 -34 3 -156 -1
-28 2 -56 6 -62 3 -6 1 -11 -5 -11 -6 0 -8 -5 -5 -10 7 -11 8 -79 2 -135 -1
-16 1 -42 5 -57 3 -15 3 -30 -2 -33 -5 -3 -5 -18 -1 -33 4 -15 5 -38 1 -52 -4
-14 -3 -36 0 -50 4 -14 4 -34 0 -45 -4 -11 -4 -29 0 -40 4 -11 4 -31 0 -45 -4
-14 -3 -34 1 -46 4 -11 4 -27 -1 -34 -5 -7 -4 -24 0 -36 6 -14 5 -26 0 -29 -5
-3 -5 -18 0 -35 5 -18 5 -32 -1 -36 -5 -3 -7 -10 -3 -15 5 -9 6 -34 3 -156 -1
-28 2 -56 6 -62 3 -6 1 -11 -5 -11 -6 0 -8 -5 -5 -10 7 -11 8 -79 2 -135 -1
-16 1 -42 5 -57 3 -15 3 -30 -2 -33 -5 -3 -5 -18 -1 -33 4 -15 5 -38 1 -52 -4
-14 -3 -36 0 -50 4 -14 4 -34 0 -45 -4 -11 -4 -29 0 -40 4 -11 4 -31 0 -45 -4
-14 -3 -34 1 -46 4 -11 4 -27 -1 -34 -5 -7 -4 -24 0 -36 6 -14 5 -26 0 -29 -5
-3 -5 -18 0 -35 5 -18 5 -32 -1 -36 -5 -3 -7 -10 -3 -15 5 -9 6 -34 3 -156 -1
-28 2 -56 6 -62 3 -6 1 -11 -5 -11 -6 0 -8 -5 -5 -10 7 -11 8 -69 3 -158 -2
-28 -1 -52 2 -52 3 0 5 -17 4 -37 0 -57 24 -178 52 -252 46 -123 146 -261 234
-324 14 -9 40 -28 59 -42 77 -56 244 -110 369 -119 34 -3 65 -7 69 -9 5 -3 17
-1 28 3 11 4 30 4 42 -1 13 -5 23 -5 23 1 0 5 12 5 29 0 16 -4 32 -6 35 -3 6
7 146 7 153 0 2 -3 17 -2 31 3 15 4 37 3 50 -1 12 -5 22 -4 22 1 0 5 12 5 29
0 15 -4 33 -5 40 -1 6 4 33 5 59 1 27 -3 60 -3 74 1 14 4 31 3 38 -1 7 -4 24
-5 38 -1 14 4 47 4 74 1 26 -4 48 -3 48 2 0 5 9 4 20 -2 12 -6 20 -7 20 -1 0
6 11 7 28 2 15 -4 38 -5 52 -1 13 3 46 3 72 0 27 -4 48 -3 48 2 0 5 9 4 20 -2
12 -6 20 -7 20 -1 0 6 11 6 29 1 16 -4 31 -6 34 -4 8 8 81 10 102 4 11 -4 31
-4 45 0 14 4 35 3 48 -1 12 -5 22 -5 22 1 0 5 12 5 29 0 15 -4 33 -5 40 -1 6
4 33 5 59 1 27 -3 60 -3 74 1 14 4 31 3 38 -1 7 -4 24 -5 38 -1 14 4 47 4 74
1 26 -4 48 -3 48 2 0 5 9 4 20 -2 12 -6 20 -7 20 -1 0 6 11 7 28 2 15 -4 38
-5 52 -1 13 3 46 3 72 0 27 -4 48 -3 48 2 0 5 9 4 20 -2 12 -6 20 -7 20 -1 0
6 11 6 27 2 16 -4 40 -5 54 -1 15 4 32 4 39 0 7 -4 25 -4 40 0 15 4 33 4 40 0
7 -4 24 -5 38 -1 14 4 47 4 74 1 26 -4 48 -3 48 2 0 5 9 4 20 -2 12 -6 20 -7
20 -1 0 6 11 7 28 2 15 -4 38 -5 52 -1 13 3 46 3 72 0 27 -4 48 -3 48 2 0 5 9
4 20 -2 12 -6 20 -7 20 -1 0 6 11 7 28 2 15 -4 38 -5 52 -1 13 3 46 3 72 0 27
-4 48 -3 48 2 0 5 9 4 20 -2 12 -6 20 -7 20 -1 0 6 11 7 28 2 15 -4 38 -5 52
-1 13 3 46 3 71 0 26 -3 55 -3 65 1 11 3 29 3 42 -2 14 -5 22 -5 22 2 0 6 7 6
20 -1 12 -6 20 -7 20 -1 0 6 11 7 28 2 15 -4 38 -5 52 -1 13 3 46 3 72 0 26
-4 53 -3 60 1 6 4 21 4 32 0 12 -4 32 -5 46 -1 14 4 35 3 48 -1 12 -5 22 -5
22 1 0 5 12 5 29 0 15 -4 33 -5 40 -1 6 4 33 5 59 1 27 -3 60 -3 74 1 14 4 31
3 38 -1 7 -4 24 -5 38 -1 14 4 47 4 74 1 26 -4 48 -3 48 2 0 5 9 4 20 -2 12
-6 20 -7 20 -1 0 6 11 7 28 2 15 -4 38 -5 52 -1 13 3 46 3 72 0 27 -4 48 -3
48 2 0 5 9 4 20 -2 12 -6 20 -7 20 -1 0 6 11 6 29 1 16 -4 31 -6 34 -4 8 8 81
10 102 4 11 -4 31 -4 45 0 14 4 35 3 48 -1 12 -5 22 -5 22 1 0 5 12 5 29 0 15
-4 33 -5 39 -1 5 3 47 4 91 1 45 -3 81 -1 81 3 0 4 9 3 20 -3 12 -6 20 -7 20
-1 0 6 11 7 28 2 15 -4 38 -5 52 -1 13 3 46 3 71 0 26 -3 55 -3 65 1 11 3 29
3 42 -2 14 -5 22 -5 22 2 0 6 7 6 20 -1 12 -6 20 -7 20 -1 0 6 11 6 29 1 16
-4 32 -6 35 -3 5 6 96 5 131 -1 11 -2 32 0 46 4 15 4 32 4 39 0 7 -4 24 -5 38
-1 14 4 47 4 74 1 26 -4 48 -3 48 2 0 5 9 4 20 -2 12 -6 20 -7 20 -1 0 6 11 7
27 2 16 -4 39 -5 53 -1 13 3 46 3 72 0 27 -4 48 -3 48 2 0 5 9 4 20 -2 12 -6
20 -7 20 -1 0 6 11 6 28 2 15 -4 39 -5 53 -1 15 4 32 4 39 0 7 -4 25 -4 40 0
15 4 33 4 40 0 7 -4 24 -5 38 -1 14 4 47 4 74 1 26 -4 48 -3 48 2 0 5 9 4 20
-2 12 -6 20 -7 20 -1 0 6 11 7 28 2 15 -4 38 -5 52 -1 13 3 46 3 72 0 27 -4
48 -3 48 2 0 5 9 4 20 -2 12 -6 20 -7 20 -1 0 6 11 6 29 1 16 -4 31 -6 34 -4
8 8 81 10 102 4 11 -4 31 -4 45 0 14 4 35 3 48 -1 12 -5 22 -5 22 1 0 5 12 5
29 0 15 -4 33 -5 40 -1 6 4 33 5 59 1 27 -3 60 -3 74 1 14 4 31 3 38 -1 7 -4
24 -5 38 -1 14 4 47 4 74 1 26 -4 48 -3 48 2 0 5 9 4 20 -2 13 -7 20 -7 20 -1
0 7 9 7 23 3 12 -5 36 -6 52 -2 17 3 51 3 78 0 26 -4 47 -3 47 2 0 5 9 4 20
-2 12 -6 20 -7 20 -1 0 6 11 6 29 1 16 -4 32 -6 34 -4 2 3 58 6 123 8 199 6
349 59 489 171 109 87 180 186 231 322 22 59 28 81 41 148 4 22 17 570 15 640
-1 8 -1 413 -1 475 0 8 0 116 0 240 0 124 0 232 0 240 0 15 0 452 0 480 0 66
0 309 0 325 0 11 0 120 -1 243 0 122 1 226 4 230 3 5 0 14 -5 22 -6 9 -12 11
-15 5 -2 -5 -19 -35 -36 -65 -18 -30 -33 -61 -34 -69 -2 -8 -7 -17 -11 -20 -5
-3 -35 -53 -66 -111 -32 -58 -62 -112 -67 -120 -6 -8 -20 -35 -33 -60 -12 -25
-25 -47 -28 -50 -3 -3 -27 -45 -54 -95 -26 -49 -51 -94 -55 -100 -4 -5 -22
-37 -40 -70 -18 -33 -48 -87 -67 -120 -19 -33 -40 -72 -46 -87 -6 -16 -15 -28
-19 -28 -4 0 -8 -4 -8 -9 0 -5 -59 -114 -130 -241 -72 -127 -128 -235 -126
-239 3 -4 1 -13 -4 -21 -5 -8 -5 -21 0 -30 5 -9 5 -22 0 -29 -4 -8 -4 -27 0
-42 5 -16 5 -29 0 -29 -5 0 -5 -13 0 -30 5 -17 5 -30 0 -30 -5 0 -5 -12 -1
-28 5 -15 5 -37 0 -49 -5 -13 -4 -25 1 -28 6 -4 7 -13 1 -24 -5 -9 -6 -23 -2
-30 5 -7 5 -29 1 -50 -4 -21 -3 -47 1 -59 5 -12 4 -24 -1 -27 -6 -3 -6 -15 0
-30 5 -14 5 -27 0 -30 -5 -3 -5 -18 0 -35 5 -17 5 -30 0 -30 -5 0 -5 -13 0
-30 5 -17 5 -30 0 -30 -5 0 -5 -13 0 -30 5 -16 6 -30 2 -30 -4 0 -7 -43 -7
-95 0 -52 3 -95 7 -95 4 0 3 -13 -2 -30 -5 -16 -5 -30 -1 -30 4 0 5 -22 1 -49
-3 -27 -3 -58 2 -70 4 -12 3 -21 -2 -21 -5 0 -5 -13 0 -30 12 -42 -8 -61 -53
-50 -19 4 -41 4 -49 -1 -7 -4 -20 -4 -28 1 -7 4 -24 4 -36 0 -14 -6 -26 -5
-29 0 -3 6 -15 6 -30 0 -13 -5 -26 -6 -29 -2 -3 5 -30 5 -61 2 -31 -3 -58 -3
-61 2 -3 4 -16 3 -29 -2 -15 -6 -27 -6 -30 0 -3 6 -15 6 -30 0 -15 -6 -27 -6
-30 0 -3 5 -16 6 -28 1 -12 -4 -33 -5 -47 -1 -13 3 -46 3 -73 0 -26 -4 -50 -3
-53 1 -3 5 -16 4 -29 -1 -15 -6 -27 -6 -30 0 -3 6 -15 6 -30 0 -15 -6 -27 -6
-30 0 -3 6 -15 6 -29 0 -13 -5 -26 -7 -29 -4 -7 8 -147 10 -147 2 0 -4 -13 -3
-29 2 -16 4 -32 6 -35 3 -7 -8 -84 -8 -92 0 -3 3 -17 2 -30 -3 -14 -6 -24 -6
-24 0 0 5 -12 5 -28 1 -15 -5 -37 -5 -49 0 -13 5 -25 4 -28 -2 -4 -5 -11 -7
-16 -3 -13 7 -217 9 -224 2 -3 -3 -23 -2 -45 2 -22 4 -40 4 -40 -1 0 -4 -13
-4 -29 1 -16 4 -32 6 -35 3 -7 -8 -84 -8 -92 0 -3 3 -17 2 -30 -3 -14 -6 -24
-6 -24 0 0 5 -12 5 -28 1 -15 -5 -37 -5 -49 0 -13 5 -25 4 -28 -1 -3 -5 -12
-7 -20 -4 -21 8 -145 10 -145 2 0 -4 -13 -3 -29 2 -16 4 -32 6 -35 3 -7 -8
-84 -8 -92 0 -3 3 -17 2 -30 -3 -14 -6 -26 -6 -29 0 -3 6 -15 6 -30 0 -15 -6
-27 -6 -30 0 -3 5 -16 6 -28 1 -12 -4 -33 -5 -47 -1 -13 3 -46 3 -73 0 -26 -4
-50 -3 -53 1 -3 5 -16 4 -29 -1 -15 -6 -27 -6 -30 0 -3 6 -15 6 -30 0 -15 -6
-27 -6 -30 0 -3 6 -15 6 -29 0 -13 -5 -26 -6 -30 -3 -3 3 -27 5 -53 4 -26 -1
-55 -2 -63 -2 -64 3 -142 1 -149 -4 -6 -3 -12 -1 -16 4 -3 7 -15 7 -29 1 -13
-5 -26 -6 -29 -3 -8 8 -127 9 -127 1 0 -4 -13 -3 -29 2 -16 4 -32 6 -35 3 -7
-8 -84 -8 -92 0 -3 3 -17 2 -30 -3 -14 -6 -24 -6 -24 0 0 5 -12 5 -28 1 -15
-5 -37 -5 -49 0 -13 5 -25 4 -28 -1 -3 -5 -12 -7 -20 -4 -21 8 -145 10 -145 2
0 -4 -13 -3 -29 2 -15 4 -33 5 -40 1 -6 -4 -26 -6 -43 -4 -52 6 -157 5 -167
-2 -6 -3 -12 -1 -16 4 -3 7 -15 7 -30 1 -13 -5 -26 -6 -29 -2 -3 5 -30 5 -61
2 -31 -3 -58 -3 -61 2 -3 4 -16 3 -29 -2 -15 -6 -27 -6 -30 0 -3 6 -15 6 -30
0 -15 -6 -27 -6 -30 0 -3 5 -16 6 -28 1 -12 -4 -33 -5 -47 -1 -13 3 -46 3 -73
0 -26 -4 -50 -3 -53 1 -3 5 -16 4 -29 -1 -15 -6 -27 -6 -30 0 -3 6 -15 6 -30
0 -15 -6 -27 -6 -30 0 -3 6 -15 6 -29 0 -13 -5 -26 -7 -29 -4 -7 8 -147 10
-147 2 0 -4 -13 -3 -29 2 -16 4 -32 6 -35 3 -7 -8 -84 -8 -92 0 -3 3 -17 2
-30 -3 -14 -6 -24 -6 -24 0 0 5 -12 5 -28 1 -15 -5 -37 -5 -49 0 -13 5 -25 4
-28 -2 -4 -5 -11 -7 -16 -3 -13 7 -217 9 -224 2 -3 -3 -23 -2 -45 2 -22 4 -40
4 -40 -1 0 -4 -13 -4 -29 1 -16 4 -32 6 -35 3 -7 -8 -84 -8 -92 0 -3 3 -17 2
-30 -3 -14 -6 -24 -6 -24 0 0 5 -12 5 -28 1 -15 -5 -37 -5 -49 0 -13 5 -25 4
-28 -1 -3 -5 -12 -7 -20 -4 -21 8 -145 10 -145 2 0 -4 -13 -3 -29 2 -16 4 -32
6 -35 3 -7 -8 -84 -8 -92 0 -3 3 -17 2 -30 -3 -14 -6 -26 -6 -29 0 -3 6 -15 6
-30 0 -15 -6 -27 -6 -30 0 -3 5 -16 6 -28 1 -12 -4 -33 -5 -47 -1 -13 3 -46 3
-73 0 -26 -4 -50 -3 -53 1 -3 5 -16 4 -29 -1 -15 -6 -27 -6 -30 0 -3 6 -15 6
-30 0 -15 -6 -27 -6 -30 0 -3 6 -15 6 -29 0 -13 -5 -26 -6 -30 -3 -3 3 -27 5
-53 4 -26 -1 -55 -2 -63 -2 -64 3 -142 1 -149 -4 -6 -3 -12 -1 -16 4 -3 7 -15
7 -29 1 -13 -5 -26 -6 -29 -3 -8 8 -127 9 -127 1 0 -4 -13 -3 -29 2 -16 4 -32
6 -35 3 -7 -8 -84 -8 -92 0 -3 3 -17 2 -30 -3 -14 -6 -24 -6 -24 0 0 5 -12 5
-28 1 -15 -5 -37 -5 -49 0 -13 5 -25 4 -28 -2 -4 -5 -11 -6 -17 -3 -6 4 -37 7
-69 6 l-58 0 0 5041 0 5042 40 -2 c22 0 43 -4 46 -7 3 -3 13 -1 22 4 10 5 23
5 29 1 7 -4 35 -5 62 -1 27 4 55 3 62 -1 6 -4 19 -4 28 1 9 5 22 5 30 0 8 -5
21 -5 30 0 9 5 22 5 30 0 8 -5 21 -5 30 0 9 5 22 5 29 0 8 -4 27 -4 42 0 16 5
29 5 29 0 0 -5 13 -5 30 0 17 5 30 5 30 0 0 -5 13 -5 30 0 17 5 30 6 30 2 0
-4 29 -7 65 -7 36 0 65 3 65 7 0 4 12 3 28 0 15 -4 41 -6 57 -5 17 2 40 3 53
3 27 0 48 0 65 1 15 0 75 0 102 -1 11 -1 27 -1 35 -1 69 3 121 2 130 -4 5 -3
10 -2 10 4 0 6 11 6 30 1 17 -5 30 -5 30 0 0 5 13 5 30 0 17 -5 30 -5 30 0 0
5 13 5 30 0 17 -5 30 -5 30 0 0 5 13 5 30 0 17 -5 30 -5 30 0 0 5 13 5 30 0
17 -5 30 -5 30 0 0 5 13 5 30 0 17 -5 30 -5 30 0 0 5 13 5 30 0 17 -5 30 -5
30 0 0 5 13 5 30 0 17 -5 30 -5 30 0 0 5 12 5 28 2 15 -4 41 -6 57 -5 17 2 40
3 53 3 27 0 48 0 65 1 15 0 75 0 102 -1 11 -1 26 -1 33 -1 91 3 124 3 129 -2
3 -4 13 -2 22 3 10 5 23 5 31 0 8 -5 21 -5 30 0 9 5 22 5 30 0 8 -5 21 -5 30
0 9 5 22 5 29 0 8 -4 27 -4 42 0 16 5 29 5 29 0 0 -5 13 -5 30 0 17 5 30 5 30
0 0 -5 13 -5 30 0 17 5 30 6 30 2 0 -4 29 -7 65 -7 36 0 65 3 65 7 0 4 12 3
28 -1 15 -4 38 -5 52 -1 14 3 39 3 55 0 17 -3 45 -3 63 1 17 3 32 3 32 -2 0
-4 13 -4 30 1 17 5 30 5 30 0 0 -5 13 -5 30 0 17 5 30 5 30 0 0 -5 13 -5 30 0
17 5 30 5 30 0 0 -5 13 -5 29 0 15 4 34 4 42 0 7 -5 20 -5 29 0 9 5 22 5 30 0
8 -5 21 -5 30 0 9 5 22 5 30 0 8 -5 21 -5 30 0 9 5 22 5 29 1 7 -5 29 -5 49
-2 20 4 51 4 67 1 17 -3 45 -3 62 1 18 4 33 3 33 -1 0 -5 14 -5 30 0 17 5 30
5 30 0 0 -5 13 -5 30 0 17 5 30 5 30 0 0 -5 13 -5 30 0 17 5 30 5 30 0 0 -5
13 -5 29 0 15 4 34 4 42 0 7 -5 20 -5 29 0 9 5 22 5 30 0 8 -5 21 -5 30 0 9 5
22 5 30 0 8 -5 21 -5 30 0 9 5 22 5 28 1 7 -4 35 -5 62 -1 27 4 55 3 62 -1 6
-4 19 -4 28 1 9 5 22 5 30 0 8 -5 21 -5 30 0 9 5 22 5 30 0 8 -5 21 -5 30 0 9
5 22 5 29 0 8 -4 27 -4 42 0 16 5 29 5 29 0 0 -5 13 -5 30 0 17 5 30 5 30 0 0
-5 13 -5 30 0 17 5 30 6 30 2 0 -4 29 -7 65 -7 36 0 65 3 65 7 0 4 12 3 28 0
15 -4 41 -6 57 -5 17 2 40 3 53 3 27 0 48 0 65 1 15 0 75 0 102 -1 11 -1 27
-1 35 -1 69 3 121 2 130 -4 5 -3 10 -2 10 4 0 6 11 6 30 1 17 -5 30 -5 30 0 0
5 13 5 30 0 17 -5 30 -5 30 0 0 5 13 5 30 0 17 -5 30 -5 30 0 0 5 13 5 30 0
17 -5 30 -5 30 0 0 5 13 5 30 0 17 -5 30 -5 30 0 0 5 13 5 30 0 17 -5 30 -5
30 0 0 5 13 5 30 0 17 -5 30 -5 30 0 0 5 13 5 30 0 17 -5 30 -5 30 0 0 5 12 5
28 2 15 -4 41 -6 57 -5 17 2 40 3 53 3 27 0 48 0 65 1 15 0 75 0 102 -1 11 -1
26 -1 33 -1 91 3 124 3 129 -2 3 -4 13 -2 22 3 10 5 23 5 31 0 8 -5 21 -5 30
0 9 5 22 5 30 0 8 -5 21 -5 30 0 9 5 22 5 29 0 8 -4 27 -4 42 0 16 5 29 5 29
0 0 -5 13 -5 30 0 17 5 30 5 30 0 0 -5 13 -5 30 0 16 5 30 6 30 2 0 -4 29 -7
65 -7 36 0 65 3 65 7 0 4 12 3 28 -1 15 -4 38 -5 52 -1 14 3 39 3 55 0 17 -3
45 -3 63 1 17 3 32 3 32 -2 0 -4 13 -4 30 1 17 5 30 5 30 0 0 -5 13 -5 30 0
17 5 30 5 30 0 0 -5 13 -5 30 0 17 5 30 5 30 0 0 -5 13 -5 29 0 15 4 34 4 42
0 7 -5 20 -5 29 0 9 5 22 5 30 0 8 -5 21 -5 30 0 9 5 22 5 30 0 8 -5 21 -5 30
0 9 5 22 5 29 1 7 -5 29 -5 49 -2 20 4 51 4 67 1 17 -3 45 -3 63 1 17 4 32 3
32 -1 0 -5 14 -5 30 0 17 5 30 5 30 0 0 -5 13 -5 30 0 16 5 30 5 30 1 0 -4 10
-7 23 -7 15 1 22 -4 21 -16 -1 -10 2 -18 6 -18 5 0 5 -13 0 -29 -4 -15 -4 -34
0 -42 5 -7 5 -20 0 -29 -5 -9 -5 -22 0 -30 5 -8 5 -21 0 -30 -5 -9 -5 -22 0
-30 5 -8 5 -21 0 -30 -5 -9 -5 -22 0 -30 5 -8 5 -21 0 -30 -5 -9 -5 -22 0 -30
5 -8 5 -21 0 -30 -5 -9 -5 -22 0 -30 5 -8 5 -21 0 -30 -5 -9 -5 -22 0 -30 5
-8 5 -21 0 -30 -5 -9 -5 -22 0 -30 5 -8 5 -21 0 -31 -5 -9 -6 -19 -3 -23 4 -4
6 -26 4 -49 -6 -89 -6 -117 0 -117 3 0 3 -20 -1 -45 -4 -25 -3 -45 1 -45 4 0
4 -13 -1 -30 -5 -18 -5 -32 1 -36 5 -3 7 -10 3 -15 -8 -14 -10 -99 -2 -99 4 0
3 -13 -2 -30 -5 -16 -6 -30 -2 -30 8 0 7 -68 -1 -76 -3 -3 -2 -17 3 -30 6 -14
6 -24 0 -24 -5 0 -5 -12 0 -30 5 -17 5 -30 0 -30 -5 0 -5 -13 0 -30 5 -17 5
-30 0 -30 -5 0 -5 -13 0 -30 5 -17 5 -30 0 -30 -5 0 -5 -12 -1 -28 5 -15 5
-37 0 -49 -5 -13 -4 -25 1 -28 6 -4 7 -13 1 -24 -5 -9 -6 -23 -2 -29 4 -7 4
-35 1 -62 -4 -28 -3 -50 1 -50 4 0 4 -13 -1 -30 -5 -16 -6 -30 -2 -30 8 0 7
-68 -1 -76 -3 -3 -2 -17 3 -30 6 -14 6 -24 0 -24 -5 0 -5 -12 0 -30 5 -17 5
-30 0 -30 -5 0 -5 -13 0 -30 5 -17 5 -30 0 -30 -5 0 -5 -13 0 -30 5 -17 5 -30
0 -30 -5 0 -5 -12 -1 -28 5 -15 5 -37 0 -49 -5 -13 -4 -25 1 -28 7 -4 7 -13 0
-24 -5 -10 -6 -21 -3 -25 4 -4 6 -26 4 -49 -6 -89 -6 -117 0 -117 3 0 3 -20
-1 -45 -4 -25 -3 -45 1 -45 4 0 4 -13 -1 -30 -5 -17 -5 -32 0 -35 5 -3 6 -13
3 -23 -4 -9 -6 -32 -5 -52 1 -19 2 -41 2 -47 0 -7 0 -20 0 -28 0 -8 0 -22 0
-30 0 -8 0 -22 0 -30 0 -8 0 -22 0 -30 0 -8 0 -22 0 -30 0 -8 0 -22 0 -30 0
-8 0 -22 0 -30 0 -8 0 -22 0 -30 0 -8 0 -22 0 -30 0 -8 0 -22 0 -30 0 -8 0
-22 0 -30 0 -8 0 -22 0 -30 0 -8 0 -22 0 -30 0 -8 0 -22 0 -30 0 -8 0 -22 0
-30 0 -8 0 -22 0 -30 0 -8 0 -23 0 -32 0 -28 -1 -94 -3 -136 -1 -20 1 -37 4
-37 3 0 3 -20 -1 -45 -4 -25 -3 -45 1 -45 4 0 4 -13 -1 -30 -5 -18 -5 -32 1
-36 5 -3 7 -10 3 -15 -8 -14 -10 -99 -2 -99 4 0 3 -13 -2 -30 -5 -16 -6 -30
-2 -30 8 0 7 -68 -1 -76 -3 -3 -2 -17 3 -30 6 -14 6 -24 0 -24 -5 0 -5 -12 0
-30 5 -17 5 -30 0 -30 -5 0 -5 -13 0 -30 5 -17 5 -30 0 -30 -5 0 -5 -13 0 -30
5 -17 5 -30 0 -30 -5 0 -5 -12 -1 -28 5 -15 5 -37 0 -49 -5 -13 -4 -25 1 -28
6 -4 7 -13 1 -24 -5 -9 -6 -23 -2 -29 4 -7 4 -35 1 -62 -4 -28 -3 -50 1 -50 4
0 4 -13 -1 -30 -5 -17 -5 -30 0 -30 5 0 5 -13 0 -30 -5 -17 -5 -30 0 -30 5 0
5 -13 0 -30 -5 -18 -5 -30 0 -30 6 0 6 -10 0 -25 -6 -15 -6 -27 0 -30 6 -3 6
-15 0 -30 -6 -15 -6 -27 0 -30 6 -3 6 -15 0 -30 -6 -15 -6 -27 1 -30 5 -4 7
-11 4 -16 -4 -5 -4 -9 -1 -9 3 0 17 21 31 48 14 26 34 60 43 77 64 112 122
217 122 220 0 2 24 45 54 97 29 51 64 113 78 138 14 25 56 101 95 170 63 113
117 211 147 265 6 11 16 23 21 27 6 4 6 8 2 8 -5 0 1 13 12 29 12 16 21 34 21
40 0 6 5 11 12 11 6 0 9 3 5 6 -3 3 10 30 29 59 19 30 34 57 34 60 0 4 19 39
42 78 89 151 87 144 88 327 1 91 1 172 1 180 0 8 0 116 0 240 0 124 0 232 0
240 0 15 0 452 0 480 0 79 0 308 0 320 0 8 0 116 0 240 0 124 0 232 0 240 0
15 0 452 0 480 0 8 0 83 0 165 0 177 1 153 -5 341 -4 148 -8 182 -25 226 -5
13 -9 28 -10 33 -7 39 -19 71 -59 153 -25 50 -48 92 -53 92 -4 0 -11 9 -14 21
-11 34 -154 172 -216 208 -133 78 -222 106 -366 116 -35 2 -67 6 -72 10 -5 3
-12 1 -16 -5 -4 -6 -11 -7 -17 -4 -14 9 -235 7 -250 -2 -6 -4 -9 -3 -5 2 3 5
-14 8 -36 7 -82 -5 -147 -4 -156 1 -5 4 -12 2 -16 -4 -4 -6 -11 -7 -17 -4 -14
9 -235 7 -250 -2 -6 -4 -9 -3 -5 2 3 5 -14 8 -36 7 -82 -5 -147 -4 -156 1 -5
4 -12 2 -16 -4 -4 -6 -11 -7 -17 -4 -14 9 -235 7 -250 -2 -6 -4 -9 -3 -5 2 3
5 -14 8 -36 7 -82 -5 -147 -4 -156 1 -5 4 -12 2 -16 -4 -4 -6 -11 -7 -17 -4
-14 9 -235 7 -250 -2 -6 -4 -9 -3 -5 2 3 5 -14 8 -36 7 -82 -5 -147 -4 -156 1
-5 4 -12 2 -16 -4 -4 -6 -11 -7 -17 -4 -14 9 -235 7 -250 -2 -6 -4 -9 -3 -5 2
3 5 -14 8 -36 7 -82 -5 -147 -4 -156 1 -5 4 -12 2 -16 -4 -4 -6 -11 -7 -17 -4
-14 9 -235 7 -250 -2 -6 -4 -9 -3 -5 2 3 5 -14 8 -36 7 -82 -5 -147 -4 -156 1
-5 4 -12 2 -16 -4 -4 -6 -11 -7 -17 -4 -14 9 -235 7 -250 -2 -6 -4 -9 -3 -5 2
3 5 -14 8 -36 7 -82 -5 -147 -4 -156 1 -5 4 -12 2 -16 -4 -4 -6 -11 -7 -17 -4
-14 9 -235 7 -250 -2 -6 -4 -9 -3 -5 2 3 5 -14 8 -36 7 -82 -5 -147 -4 -156 1
-5 4 -12 2 -16 -4 -4 -6 -11 -7 -17 -4 -14 9 -235 7 -250 -2 -6 -4 -9 -3 -5 2
3 5 -14 8 -36 7 -82 -5 -147 -4 -156 1 -5 4 -12 2 -16 -4 -4 -6 -11 -7 -17 -4
-14 9 -235 7 -250 -2 -6 -4 -9 -3 -5 2 3 5 -14 8 -36 7 -82 -5 -147 -4 -156 1
-5 4 -12 2 -16 -4 -4 -6 -11 -7 -17 -4 -14 9 -235 7 -250 -2 -6 -4 -9 -3 -5 2
3 5 -14 8 -36 7 -82 -5 -147 -4 -156 1 -5 4 -12 2 -16 -4 -4 -6 -11 -7 -17 -4
-14 9 -235 7 -250 -2 -6 -4 -9 -3 -5 2 3 5 -14 8 -36 7 -82 -5 -147 -4 -156 1
-5 4 -12 2 -16 -4 -4 -6 -11 -7 -17 -4 -14 9 -235 7 -250 -2 -6 -4 -9 -3 -5 2
3 5 -14 8 -36 7 -82 -5 -147 -4 -156 1 -5 4 -12 2 -16 -4 -4 -6 -11 -7 -17 -4
-14 9 -235 7 -250 -2 -6 -4 -9 -3 -5 2 3 5 -14 8 -36 7 -82 -5 -147 -4 -156 1
-5 4 -12 2 -16 -4 -4 -6 -11 -7 -17 -4 -14 9 -235 7 -250 -2 -6 -4 -9 -3 -5 2
3 5 -14 8 -36 7 -82 -5 -147 -4 -156 1 -5 4 -12 2 -16 -4 -4 -6 -11 -7 -17 -4
-14 9 -235 7 -250 -2 -6 -4 -9 -3 -5 2 4 8 -60 14 -67 6z"/>
<path d="M1900 9721 c0 -3 -22 -4 -50 -3 l-50 4 -1 -49 c-1 -166 2 -498 6
-502 3 -2 1 -9 -5 -15 -16 -20 6 -37 46 -36 63 1 83 1 197 -1 59 -1 110 0 113
3 2 3 21 2 42 -1 20 -4 51 -4 69 0 17 3 36 3 43 -1 6 -4 30 -4 53 0 23 3 56 3
74 -1 17 -3 37 -3 43 1 7 4 27 4 46 0 20 -5 34 -4 34 2 0 5 5 6 10 3 9 -6 199
-9 225 -5 6 2 14 2 19 1 5 -1 30 -2 55 -1 46 1 69 1 94 -1 12 0 106 0 142 1
39 1 70 -1 90 -4 11 -1 34 0 52 5 18 4 35 3 38 -1 3 -4 21 -4 40 0 19 4 37 4
40 0 3 -4 21 -4 40 0 19 4 37 4 40 0 3 -4 21 -4 40 0 20 4 48 5 62 1 15 -4 46
-4 70 -1 24 4 43 4 43 1 0 -3 23 -6 50 -6 28 0 50 3 50 6 0 4 17 3 38 0 20 -4
52 -4 70 0 17 3 32 4 32 0 0 -3 23 -6 50 -6 28 0 50 3 50 6 0 4 18 3 40 -1 22
-4 40 -4 40 0 0 4 15 5 33 1 32 -7 91 -5 114 4 7 2 15 0 18 -4 3 -5 21 -5 40
-1 19 4 37 4 40 0 3 -4 21 -4 40 0 19 4 37 4 40 0 3 -4 22 -4 42 0 20 5 41 6
45 4 11 -7 217 -8 224 -2 2 3 21 2 42 -1 20 -4 51 -4 69 0 17 3 36 3 43 -1 6
-4 30 -4 53 0 23 3 56 3 74 -1 17 -3 37 -3 43 1 6 4 26 4 43 1 18 -4 53 -4 78
-1 26 3 55 3 64 0 10 -4 38 -3 62 0 23 4 43 4 43 1 0 -7 179 -5 186 2 2 2 21
1 42 -2 20 -4 54 -4 75 -1 20 4 37 4 37 1 0 -3 19 -5 42 -4 24 1 70 2 103 2
124 1 139 2 147 7 4 3 8 2 8 -3 0 -8 178 -9 186 0 2 2 21 1 42 -2 20 -4 54 -4
75 -1 20 4 37 4 37 1 0 -3 19 -5 42 -4 24 1 62 2 84 2 36 1 42 4 46 26 3 14 1
25 -3 25 -5 0 -4 11 1 24 5 13 6 26 3 30 -5 5 -7 67 -3 91 4 26 2 104 -4 113
-3 6 -2 13 3 17 6 3 7 13 4 22 -6 14 -7 71 -3 91 4 18 1 92 -4 101 -4 5 -2 12
3 15 5 3 7 15 4 26 -5 18 -13 21 -67 20 -33 0 -74 1 -91 3 -16 1 -39 0 -50 -4
-11 -3 -29 -3 -40 1 -11 4 -28 3 -37 -2 -12 -5 -18 -5 -18 1 0 7 -8 7 -23 2
-13 -5 -30 -6 -37 -1 -7 4 -25 4 -41 0 -15 -5 -30 -6 -32 -3 -8 8 -70 9 -92 2
-11 -3 -29 -3 -40 1 -11 4 -28 4 -37 -1 -10 -6 -19 -5 -23 1 -4 6 -11 7 -17 4
-10 -6 -82 -7 -153 -1 -16 1 -39 0 -50 -4 -11 -3 -29 -3 -40 1 -11 4 -28 3
-37 -2 -12 -5 -18 -5 -18 1 0 7 -8 7 -23 2 -13 -5 -30 -6 -37 -1 -7 4 -25 4
-41 0 -15 -5 -29 -6 -32 -4 -8 8 -74 10 -93 3 -11 -3 -28 -3 -40 1 -11 5 -27
4 -34 0 -8 -5 -19 -5 -26 1 -8 7 -14 6 -19 -1 -3 -6 -10 -8 -14 -6 -7 4 -52 6
-166 6 -11 0 -49 0 -85 -1 -36 0 -72 0 -80 1 -8 0 -34 1 -58 1 -24 1 -46 -1
-49 -4 -3 -3 -15 -2 -27 3 -13 4 -29 4 -39 -1 -11 -7 -17 -6 -17 0 0 7 -8 7
-24 1 -13 -5 -26 -6 -29 -4 -8 9 -70 11 -92 3 -11 -3 -29 -3 -40 1 -11 4 -28
3 -37 -2 -12 -5 -18 -5 -18 1 0 7 -8 7 -24 1 -13 -5 -26 -6 -29 -4 -9 9 -71
10 -94 2 -13 -4 -25 -3 -28 3 -4 5 -11 7 -16 3 -6 -3 -36 -5 -67 -4 -31 1 -66
1 -77 0 -11 -1 -27 -1 -35 -1 -8 0 -44 1 -80 0 -36 0 -72 0 -80 1 -8 0 -34 1
-58 1 -24 1 -46 -1 -49 -4 -3 -3 -15 -2 -27 3 -13 4 -29 4 -39 -1 -11 -7 -17
-6 -17 0 0 7 -8 7 -24 1 -13 -5 -26 -6 -29 -4 -8 9 -70 11 -92 3 -11 -3 -29
-3 -40 1 -11 4 -28 3 -37 -2 -12 -5 -18 -5 -18 1 0 7 -8 7 -24 1 -13 -5 -26
-6 -29 -4 -9 9 -71 10 -94 2 -13 -4 -25 -3 -28 3 -4 5 -11 7 -16 3 -6 -3 -36
-5 -67 -4 -31 1 -66 1 -77 0 -11 -1 -27 -1 -35 -1 -8 0 -44 1 -80 0 -36 0 -72
0 -80 1 -8 0 -34 1 -58 1 -24 1 -46 -1 -49 -4 -3 -3 -15 -2 -27 3 -13 4 -29 4
-39 -1 -11 -7 -17 -6 -17 0 0 7 -8 7 -24 1 -13 -5 -26 -6 -29 -4 -8 9 -70 11
-92 3 -11 -3 -29 -3 -40 1 -11 4 -28 3 -37 -2 -12 -5 -18 -5 -18 1 0 7 -8 7
-24 1 -13 -5 -26 -6 -29 -4 -9 9 -71 10 -94 2 -13 -4 -25 -3 -28 3 -4 5 -11 7
-16 3 -6 -3 -36 -5 -67 -4 -31 1 -66 1 -77 0 -11 -1 -27 -1 -35 -1 -12 1 -99
1 -155 0 -5 0 -25 2 -42 4 -18 2 -33 1 -33 -2z"/>
<path d="M10753 8838 c-4 -7 -13 -22 -19 -33 -11 -20 -16 -28 -101 -175 -27
-47 -52 -92 -56 -100 -4 -8 -17 -31 -28 -50 -12 -19 -33 -55 -47 -80 -14 -25
-33 -58 -43 -74 -18 -29 -16 -56 5 -56 6 0 49 -23 95 -50 46 -28 85 -50 86
-50 2 0 64 -36 140 -80 76 -44 139 -80 141 -80 3 0 23 -12 47 -27 23 -15 60
-37 82 -49 22 -11 64 -35 93 -52 29 -18 56 -32 60 -32 4 0 18 -9 32 -20 35
-27 43 -25 67 18 11 20 46 82 78 137 86 151 100 176 131 230 15 28 30 52 33
55 10 8 51 88 51 98 0 4 -39 31 -86 58 -47 27 -102 59 -122 71 -21 12 -46 26
-58 32 -12 5 -67 37 -123 70 -57 34 -107 61 -112 61 -5 0 -9 3 -9 8 0 4 -20
16 -45 27 -25 11 -45 22 -45 25 0 3 -12 11 -27 17 -16 7 -35 17 -43 22 -44 30
-152 91 -160 91 -5 0 -12 -6 -17 -12z"/>
<path d="M1815 8276 c-12 -9 -15 -42 -14 -191 0 -99 0 -189 0 -200 -3 -195 2
-221 44 -205 13 5 25 6 29 3 8 -9 106 -9 106 0 0 5 5 5 10 2 6 -4 39 -6 73 -6
61 1 73 1 122 1 14 1 37 1 53 1 15 1 38 0 52 0 14 -1 33 -1 43 -1 9 0 23 0 30
-1 6 0 26 0 42 0 17 1 50 1 75 1 45 -1 109 -1 143 0 9 0 25 0 35 0 9 0 28 0
42 1 14 0 30 0 35 0 8 0 55 -1 208 -1 25 0 63 1 90 1 12 0 36 0 52 0 17 -1 37
-1 45 -1 8 1 41 -1 73 -2 31 -2 57 1 57 5 0 5 5 5 10 2 6 -4 39 -6 73 -6 61 1
73 1 122 1 14 1 37 1 53 1 15 1 38 0 52 0 14 -1 33 -1 43 -1 9 0 23 0 30 -1 6
0 26 0 42 0 17 1 50 1 75 1 45 -1 109 -1 143 0 9 0 25 0 35 0 9 0 28 0 42 1
14 0 30 0 35 0 8 0 55 -1 208 -1 25 0 63 1 90 1 12 0 36 0 52 0 17 -1 37 -1
45 -1 8 1 41 -1 73 -2 31 -2 57 1 57 5 0 5 5 5 10 2 6 -4 39 -6 73 -6 61 1 73
1 122 1 14 1 37 1 53 1 15 1 38 0 52 0 31 -2 58 -2 90 0 14 0 32 0 40 0 8 0
42 -1 75 0 33 0 67 0 75 -1 8 0 29 0 45 1 17 0 35 0 40 0 6 0 35 0 65 -1 30 0
71 0 90 -1 19 -1 41 -1 48 0 6 1 20 1 30 1 9 0 31 0 47 1 17 0 35 0 40 0 29
-1 112 -1 125 0 16 1 90 0 130 -2 14 0 31 0 38 0 6 1 20 1 30 1 9 0 28 0 42 1
14 0 30 0 35 0 8 0 55 -1 208 -1 25 0 63 1 90 1 12 0 36 0 52 0 17 -1 37 -1
45 -1 8 1 41 -1 73 -2 31 -2 57 1 57 5 0 5 5 5 10 2 6 -4 39 -6 73 -6 61 1 73
1 122 1 14 1 37 1 53 1 15 1 38 0 52 0 31 -2 58 -2 90 0 14 0 32 0 40 0 8 0
42 -1 75 0 33 0 67 0 75 -1 8 0 29 0 45 1 17 0 35 0 40 0 6 0 35 0 65 -1 30 0
71 0 90 -1 19 -1 41 -1 48 0 6 1 20 1 30 1 9 0 31 0 47 1 17 0 35 0 40 0 27
-1 112 -1 125 0 8 0 44 0 80 0 36 -1 73 -1 83 -1 9 0 27 0 40 0 12 0 31 1 42
3 11 2 32 1 46 -3 47 -14 55 7 48 120 0 8 0 33 0 55 1 22 1 48 1 58 0 9 0 23
1 30 0 6 -1 31 -3 55 -2 23 -1 42 2 42 6 0 5 84 -2 96 -2 5 -3 20 -1 34 5 38
5 43 -1 68 -3 13 0 22 7 22 8 0 8 3 0 11 -12 12 -123 16 -141 5 -6 -3 -13 -2
-16 3 -3 5 -21 6 -38 2 -32 -6 -47 -6 -119 1 -20 2 -45 1 -55 -3 -11 -3 -28
-3 -40 1 -11 5 -27 4 -34 0 -8 -5 -19 -5 -26 1 -8 7 -14 6 -19 -1 -3 -6 -10
-8 -14 -6 -4 3 -39 5 -77 5 -87 1 -101 1 -116 2 -7 0 -26 0 -43 0 -16 -1 -43
0 -60 2 -16 1 -39 0 -50 -4 -11 -3 -29 -3 -40 1 -11 4 -28 4 -37 -1 -10 -6
-19 -5 -23 1 -5 8 -11 8 -19 1 -7 -6 -15 -9 -17 -6 -3 2 -36 4 -74 4 -88 1
-102 1 -117 2 -7 0 -26 0 -43 0 -16 -1 -43 0 -60 2 -16 1 -39 0 -50 -4 -11 -3
-29 -3 -40 1 -11 4 -28 4 -37 -1 -10 -6 -19 -5 -23 1 -4 6 -11 7 -17 4 -10 -6
-82 -7 -153 -1 -16 1 -39 0 -50 -4 -11 -3 -29 -3 -40 1 -11 4 -28 4 -37 -1
-10 -6 -19 -5 -23 1 -5 8 -11 8 -19 1 -7 -6 -15 -9 -17 -6 -3 2 -36 4 -74 4
-88 1 -102 1 -117 2 -7 0 -26 0 -43 0 -16 -1 -43 0 -60 2 -16 1 -39 0 -50 -4
-11 -3 -29 -3 -40 1 -11 4 -28 4 -37 -1 -10 -6 -19 -5 -23 1 -5 8 -11 8 -19 1
-7 -6 -15 -9 -17 -6 -3 2 -36 4 -74 4 -88 1 -102 1 -117 2 -7 0 -26 0 -43 0
-16 -1 -43 0 -60 2 -16 1 -39 0 -50 -4 -11 -3 -29 -3 -40 1 -11 4 -28 4 -37
-1 -10 -6 -19 -5 -23 1 -5 8 -11 8 -19 1 -7 -6 -15 -9 -17 -6 -3 2 -36 4 -74
4 -88 1 -102 1 -117 2 -7 0 -26 0 -43 0 -16 -1 -43 0 -60 2 -16 1 -39 0 -50
-4 -11 -3 -29 -3 -40 1 -11 4 -28 4 -37 -1 -10 -6 -19 -5 -23 1 -5 8 -11 8
-19 1 -7 -6 -15 -9 -17 -6 -3 2 -36 4 -74 4 -88 1 -102 1 -117 2 -7 0 -26 0
-43 0 -16 -1 -43 0 -60 2 -16 1 -39 0 -50 -4 -11 -3 -29 -3 -40 1 -11 4 -28 4
-37 -1 -10 -6 -19 -5 -23 1 -5 8 -11 8 -19 1 -7 -6 -15 -9 -17 -6 -3 2 -36 4
-74 4 -88 1 -102 1 -117 2 -7 0 -26 0 -43 0 -16 -1 -43 0 -60 2 -16 1 -39 0
-50 -4 -11 -3 -29 -3 -40 1 -11 4 -28 4 -37 -1 -10 -6 -19 -5 -23 1 -5 8 -11
8 -19 1 -7 -6 -15 -9 -17 -6 -3 2 -36 4 -74 4 -88 1 -102 1 -117 2 -7 0 -26 0
-43 0 -16 -1 -43 0 -60 2 -16 1 -39 0 -50 -4 -11 -3 -29 -3 -40 1 -11 4 -28 4
-37 -1 -10 -6 -19 -5 -23 1 -5 8 -11 8 -19 1 -7 -6 -15 -9 -17 -6 -3 2 -36 4
-74 4 -88 1 -102 1 -117 2 -7 0 -26 0 -43 0 -16 -1 -43 0 -60 2 -16 1 -39 0
-50 -4 -11 -3 -29 -3 -40 1 -11 4 -28 4 -37 -1 -10 -6 -19 -5 -23 1 -5 8 -11
8 -19 1 -7 -6 -15 -9 -17 -6 -4 3 -50 5 -164 5 -11 0 -49 0 -85 -1 -63 0 -76
0 -102 2 -7 0 -26 0 -43 -1 -16 0 -44 1 -61 3 -18 2 -40 0 -50 -4 -11 -3 -28
-3 -40 1 -11 5 -27 4 -34 0 -8 -5 -19 -5 -26 1 -7 6 -14 6 -17 2 -3 -5 -37 -6
-76 -3 -39 3 -79 2 -89 -1 -9 -4 -24 -3 -32 1 -8 4 -24 4 -34 0 -11 -3 -37 -3
-58 0 -23 5 -44 3 -53 -4z"/>
<path d="M10175 7918 c-16 -29 -42 -73 -57 -98 -15 -25 -37 -63 -50 -85 -12
-22 -28 -49 -35 -60 -7 -11 -18 -31 -25 -45 -7 -14 -30 -53 -50 -86 -21 -34
-38 -66 -38 -72 0 -6 -3 -12 -8 -14 -6 -3 -55 -83 -134 -223 -16 -27 -33 -57
-38 -65 -34 -53 -100 -172 -100 -180 0 -6 -4 -10 -10 -10 -5 0 -10 -4 -10 -9
0 -4 -37 -71 -82 -147 -118 -201 -148 -255 -148 -264 0 -5 -3 -10 -8 -12 -9
-4 -132 -217 -132 -229 0 -5 -4 -9 -9 -9 -5 0 -11 -8 -15 -17 -3 -10 -15 -34
-27 -53 -73 -120 -129 -220 -129 -229 0 -6 -4 -11 -10 -11 -5 0 -12 -11 -16
-25 -3 -14 -10 -25 -14 -25 -4 0 -10 -8 -14 -17 -3 -10 -10 -25 -16 -33 -9
-14 -219 -372 -262 -450 -85 -150 -173 -296 -182 -302 -6 -4 -7 -8 -2 -8 5 0
2 -8 -6 -17 -8 -10 -18 -25 -21 -33 -4 -8 -19 -36 -34 -62 -46 -76 -107 -182
-116 -198 -4 -8 -18 -33 -32 -55 -14 -22 -31 -51 -38 -65 -6 -14 -14 -27 -17
-30 -3 -3 -12 -17 -20 -32 -24 -43 -159 -275 -207 -355 -23 -40 -43 -77 -43
-83 0 -5 -4 -10 -8 -10 -4 0 -13 -12 -20 -27 -6 -16 -34 -66 -62 -112 -27 -46
-50 -88 -50 -92 0 -5 -4 -9 -10 -9 -5 0 -10 -5 -10 -10 0 -6 -19 -43 -43 -83
-24 -39 -57 -94 -73 -122 -16 -27 -33 -58 -39 -67 -5 -9 -17 -29 -26 -45 -60
-106 -108 -188 -145 -250 -24 -40 -44 -77 -44 -82 0 -5 -4 -11 -8 -13 -7 -3
-103 -165 -157 -266 -11 -20 -23 -39 -27 -40 -5 -2 -8 -8 -8 -12 0 -5 -21 -43
-46 -84 -25 -42 -45 -84 -45 -93 1 -10 1 -25 1 -33 1 -8 0 -70 -1 -138 -1 -67
1 -125 4 -128 3 -3 2 -17 -3 -30 -5 -13 -5 -26 -1 -29 5 -3 5 -21 1 -40 -4
-19 -4 -35 0 -35 5 0 5 -13 0 -30 -5 -16 -5 -30 0 -30 4 0 6 -8 4 -17 -8 -30
-10 -263 -2 -263 4 0 3 -13 -2 -30 -5 -17 -5 -30 0 -30 5 0 5 -13 0 -30 -5
-17 -5 -30 0 -30 5 0 5 -12 1 -27 -8 -30 -4 -63 7 -63 4 0 75 41 157 91 83 50
170 103 195 117 25 14 56 33 69 44 13 10 29 18 37 18 7 0 14 3 16 8 2 4 17 15
33 25 56 33 187 112 219 132 18 11 55 33 83 50 35 20 59 43 73 70 12 22 30 54
41 70 10 17 26 44 34 60 9 17 24 44 35 60 11 17 25 42 31 58 6 15 15 27 21 27
5 0 7 4 3 9 -3 5 -1 12 4 15 5 3 46 72 92 153 46 82 86 150 89 153 3 3 16 25
29 50 39 73 46 83 54 94 4 6 72 121 149 256 78 135 152 263 165 285 12 22 26
47 30 55 4 8 32 58 63 110 31 52 68 115 82 140 23 40 84 146 262 452 31 54 56
100 56 102 0 3 14 25 30 49 17 25 30 48 30 51 0 4 16 32 35 62 19 30 35 57 35
59 0 3 18 35 40 71 22 36 40 67 40 69 0 2 18 33 40 69 22 36 40 70 40 76 0 5
4 10 9 10 5 0 14 12 20 28 6 15 22 45 36 67 14 22 28 46 31 53 4 8 45 80 92
160 165 286 195 337 206 359 6 13 14 23 19 23 4 0 7 5 7 11 0 6 23 49 51 97
55 91 76 128 117 202 14 25 42 74 64 109 21 34 38 64 38 66 0 1 36 65 81 141
44 77 91 157 104 179 71 126 125 219 135 235 6 8 13 23 16 33 4 9 10 17 15 17
5 0 9 5 9 10 0 6 58 110 129 233 71 122 138 238 149 257 11 19 39 68 62 108
23 40 41 74 39 76 -2 2 -24 14 -49 27 -25 13 -52 29 -60 35 -8 6 -37 24 -65
39 -27 14 -65 35 -84 46 -148 87 -294 169 -302 169 -5 0 -9 5 -9 10 0 6 -4 10
-9 10 -9 0 -94 47 -156 85 -11 7 -24 12 -29 13 -5 0 -12 4 -15 9 -7 10 -48 33
-58 33 -5 0 -21 -23 -38 -52z"/>
<path d="M1823 6959 c-13 -5 -23 -14 -23 -21 -1 -12 -1 -493 0 -551 l0 -27
2338 0 2339 0 1 36 c1 19 4 38 6 42 3 5 1 14 -4 22 -4 7 -5 23 0 34 4 12 4 30
0 41 -4 11 -4 29 0 40 4 11 4 29 0 40 -4 11 -4 29 0 40 4 11 4 29 0 40 -4 11
-4 32 0 46 4 15 4 32 0 39 -5 7 -5 23 0 34 4 12 4 30 0 41 -4 11 -4 29 0 40
12 31 -6 68 -30 62 -11 -3 -23 -1 -26 4 -4 6 -11 6 -18 0 -7 -6 -16 -8 -19 -5
-3 3 -30 6 -59 5 -29 -1 -75 -1 -103 -1 -27 1 -57 1 -65 0 -8 0 -26 0 -40 1
-14 0 -38 0 -55 0 -91 -3 -125 -2 -135 4 -5 3 -10 1 -10 -5 0 -6 -5 -8 -11 -5
-6 4 -34 7 -62 6 -29 -1 -74 -1 -102 -1 -27 1 -57 1 -65 0 -8 0 -26 0 -40 1
-14 0 -38 0 -55 0 -91 -3 -125 -2 -135 4 -5 3 -10 1 -10 -5 0 -6 -5 -8 -11 -5
-6 4 -34 7 -62 6 -120 -3 -147 -2 -155 3 -4 2 -14 1 -21 -4 -8 -4 -27 -4 -42
0 -17 5 -29 5 -29 0 0 -6 -10 -6 -23 -1 -13 5 -30 6 -37 1 -7 -4 -24 -4 -39 0
-14 4 -35 4 -46 0 -11 -4 -29 -4 -41 0 -11 5 -26 5 -33 0 -7 -4 -28 -4 -46 0
-18 4 -39 4 -46 0 -7 -5 -22 -5 -34 0 -12 5 -28 5 -35 0 -7 -4 -24 -4 -39 0
-14 4 -35 4 -46 0 -11 -4 -29 -4 -41 0 -11 5 -26 5 -33 0 -7 -4 -28 -4 -46 0
-18 4 -39 4 -46 0 -7 -5 -22 -5 -34 0 -12 5 -28 5 -35 0 -7 -4 -24 -4 -39 0
-14 4 -35 4 -46 0 -11 -4 -29 -4 -41 0 -11 5 -26 5 -33 0 -7 -4 -28 -4 -46 0
-18 4 -39 4 -46 0 -7 -5 -22 -5 -34 0 -12 5 -28 5 -35 0 -7 -4 -24 -4 -39 0
-14 4 -35 4 -46 0 -11 -4 -29 -4 -41 0 -11 5 -26 5 -33 0 -7 -4 -28 -4 -46 0
-18 4 -39 4 -46 0 -7 -5 -22 -5 -34 0 -12 5 -28 5 -35 0 -7 -4 -24 -4 -39 0
-14 4 -35 4 -46 0 -11 -4 -29 -4 -41 0 -11 5 -26 5 -33 0 -7 -4 -28 -4 -46 0
-18 4 -39 4 -46 0 -7 -5 -22 -5 -34 0 -12 5 -28 5 -35 0 -7 -4 -24 -4 -39 0
-14 4 -35 4 -46 0 -11 -4 -29 -4 -41 0 -11 5 -26 5 -33 0 -7 -4 -28 -4 -46 0
-18 4 -39 4 -46 0 -7 -5 -22 -5 -34 0 -12 5 -28 5 -35 0 -7 -4 -24 -4 -39 0
-14 4 -35 4 -46 0 -11 -4 -29 -4 -41 0 -11 5 -26 5 -33 0 -7 -4 -28 -4 -46 0
-18 4 -39 4 -46 0 -7 -5 -22 -5 -34 0 -12 5 -28 5 -35 0 -7 -4 -24 -4 -39 0
-14 4 -35 4 -46 0 -11 -4 -29 -4 -41 0 -11 5 -26 5 -33 0 -7 -4 -28 -4 -46 0
-18 4 -39 4 -46 0 -7 -5 -22 -5 -34 0 -12 5 -28 5 -35 0 -7 -4 -24 -4 -39 0
-14 4 -35 4 -46 0 -11 -4 -29 -4 -41 0 -11 5 -26 5 -33 0 -7 -4 -28 -4 -46 0
-18 4 -39 4 -46 0 -7 -5 -22 -5 -34 0 -12 5 -28 5 -35 0 -7 -4 -24 -4 -39 0
-14 4 -35 4 -46 0 -11 -4 -29 -4 -41 0 -11 5 -26 5 -33 0 -7 -4 -27 -4 -45 -1
-17 4 -47 4 -66 1 -19 -3 -42 -3 -50 1 -8 4 -25 3 -37 -2z"/>
<path d="M1838 5522 l-38 -3 -1 -105 c0 -57 0 -133 0 -169 0 -36 0 -123 0
-195 l1 -130 908 -1 c499 0 914 -1 922 0 8 0 38 0 65 0 28 0 57 0 65 0 8 0 87
0 175 0 88 -1 167 -1 175 0 13 0 67 0 130 0 179 -1 983 -1 1005 1 17 1 36 2
43 1 15 0 117 0 135 0 6 1 89 1 182 0 94 0 177 0 185 0 8 0 38 0 65 0 28 0 58
0 68 0 9 0 42 0 72 0 30 0 61 0 68 0 6 1 118 1 247 0 129 0 243 0 253 0 9 0
42 0 72 0 30 0 61 0 68 0 6 1 89 1 182 0 94 0 177 0 185 0 69 0 131 0 160 -2
19 0 42 -1 50 -1 25 1 331 2 338 1 4 -1 72 -1 152 0 l146 1 2 37 c2 20 5 40 8
44 2 4 0 10 -6 14 -6 4 -7 12 -1 24 5 9 6 23 2 29 -4 7 -5 33 -1 58 4 24 3 47
-2 50 -4 3 -4 13 1 23 5 9 6 23 2 30 -5 7 -5 29 -1 50 4 20 3 46 0 57 -4 10
-4 26 1 35 5 9 6 19 3 21 -8 9 -11 79 -3 84 4 2 5 13 2 24 -3 11 -9 18 -13 15
-5 -3 -11 -1 -14 3 -3 5 -26 6 -50 2 -25 -4 -51 -3 -58 1 -6 4 -19 4 -29 -1
-9 -5 -19 -7 -22 -3 -4 3 -27 5 -52 4 -25 0 -65 -1 -90 -1 -25 0 -53 0 -62 0
-79 0 -128 2 -135 6 -4 3 -8 1 -8 -4 0 -5 -15 -7 -32 -5 -18 3 -42 4 -53 3
-11 -1 -26 -1 -32 -1 -7 0 -35 1 -63 1 -27 0 -70 0 -95 0 -25 0 -53 0 -62 0
-79 0 -128 2 -135 6 -4 3 -8 1 -8 -4 0 -5 -15 -7 -32 -5 -18 3 -42 4 -53 3
-11 -1 -26 -1 -32 -1 -7 0 -35 1 -63 1 -27 0 -70 0 -95 0 -25 0 -53 0 -62 0
-79 0 -128 2 -135 6 -4 3 -8 1 -8 -5 0 -6 -11 -6 -29 -1 -16 4 -32 6 -35 3 -3
-3 -26 -5 -51 -4 -25 1 -53 1 -62 1 -79 0 -128 2 -135 6 -4 3 -8 1 -8 -4 0 -5
-15 -7 -32 -5 -18 3 -42 4 -53 3 -11 -1 -26 -1 -32 -1 -7 0 -35 1 -63 1 -27 0
-70 0 -95 0 -25 0 -53 0 -62 0 -79 0 -128 2 -135 6 -4 3 -8 1 -8 -4 0 -5 -15
-7 -32 -5 -18 3 -42 4 -53 3 -11 -1 -26 -1 -32 -1 -28 1 -116 1 -158 0 -25 -1
-48 1 -52 4 -3 4 -13 2 -23 -3 -10 -5 -20 -6 -24 -3 -3 3 -27 5 -54 4 -26 -1
-59 -2 -74 -2 -16 0 -39 0 -53 1 -38 0 -51 0 -105 0 -27 0 -70 0 -95 0 -25 0
-53 0 -62 0 -79 0 -128 2 -135 6 -4 3 -8 1 -8 -4 0 -5 -15 -7 -32 -5 -18 3
-42 4 -53 3 -11 -1 -26 -1 -32 -1 -7 0 -35 1 -63 1 -27 0 -70 0 -95 0 -25 0
-53 0 -62 0 -79 0 -128 2 -135 6 -4 3 -8 1 -8 -4 0 -5 -15 -7 -32 -5 -18 3
-42 4 -53 3 -11 -1 -26 -1 -32 -1 -7 0 -35 1 -63 1 -27 0 -70 0 -95 0 -25 0
-53 0 -62 0 -79 0 -128 2 -135 6 -4 3 -8 1 -8 -4 0 -5 -15 -7 -32 -5 -18 3
-42 4 -53 3 -11 -1 -26 -1 -32 -1 -7 0 -35 1 -63 1 -27 0 -70 0 -95 0 -25 0
-53 0 -62 0 -79 0 -128 2 -135 6 -4 3 -8 1 -8 -4 0 -5 -15 -7 -32 -5 -18 3
-42 4 -53 3 -11 -1 -26 -1 -32 -1 -7 0 -35 1 -63 1 -27 0 -70 0 -95 0 -25 0
-53 0 -62 0 -79 0 -128 2 -135 6 -4 3 -8 1 -8 -4 0 -5 -15 -7 -32 -5 -18 3
-39 4 -45 4 -7 0 -24 -1 -38 -1 -14 0 -32 0 -40 0 -8 0 -27 0 -42 1 -16 0 -37
-1 -48 -1 -11 -1 -26 -1 -32 -1 -7 0 -35 1 -63 1 -27 0 -70 0 -95 0 -25 0 -53
0 -62 0 -79 0 -128 2 -135 6 -4 3 -8 1 -8 -4 0 -9 -59 -7 -68 2 -2 3 -15 1
-28 -4 -13 -5 -24 -6 -24 -2 0 7 -85 9 -152 4z"/>
<path d="M5178 4204 c-3 -2 -764 -5 -1692 -5 l-1686 0 0 -67 c-1 -159 1 -451
3 -492 2 -34 6 -44 17 -41 8 2 29 3 45 1 17 -1 42 -2 58 -1 15 0 50 1 77 1 28
0 57 0 65 0 8 0 22 0 30 0 8 0 38 0 65 0 73 1 107 1 185 1 39 1 79 0 90 -1 11
-1 25 -1 30 -1 6 0 42 0 80 0 39 0 88 1 110 1 22 1 54 1 70 1 17 0 62 0 100 0
39 1 79 0 90 -1 11 -1 25 -1 30 -1 14 0 134 1 170 0 17 0 62 0 100 0 39 0 77
0 85 0 8 -1 53 -1 100 0 47 0 92 0 100 0 8 -1 35 0 60 0 25 0 52 0 60 0 13 -1
150 0 203 1 44 0 56 1 122 1 39 1 79 0 90 -1 11 -1 25 -1 30 -1 6 0 42 0 80 0
39 0 88 1 110 1 22 1 54 1 70 1 17 0 68 0 115 0 47 1 91 0 98 0 6 -1 18 -1 25
-2 6 -1 37 -1 67 0 30 0 62 1 70 1 36 -1 159 -1 195 0 22 1 51 1 65 1 100 0
210 0 235 0 17 1 41 0 55 0 14 -1 33 -1 43 -1 9 0 40 0 67 0 73 1 107 1 185 1
39 1 79 0 90 -1 11 -1 25 -1 30 -1 6 0 42 0 80 0 39 0 88 1 110 1 22 1 54 1
70 1 17 0 62 0 100 0 39 1 79 0 90 -1 11 -1 25 -1 30 -1 24 1 143 0 170 0 17
-1 41 -1 55 0 14 0 36 1 50 1 57 2 62 4 59 25 -1 9 -1 85 1 93 4 21 1 102 -4
110 -3 6 -2 13 3 17 6 3 7 13 4 22 -6 14 -7 70 -3 91 4 20 1 102 -4 110 -3 6
-2 13 4 17 6 4 7 12 3 18 -4 6 -6 30 -6 54 1 26 -3 43 -10 44 -7 0 -61 0 -122
-1 -60 -1 -114 -1 -120 -1 -11 0 -290 0 -315 0 -8 0 -80 0 -160 0 -80 0 -152
0 -160 0 -298 -1 -391 0 -400 6 -4 3 -10 2 -12 -1z"/>
<path d="M2211 2769 c-204 -52 -360 -208 -429 -429 -2 -8 -5 -69 -5 -135 -1
-102 3 -130 23 -185 34 -95 74 -157 150 -231 228 -223 586 -220 814 8 52 51
122 156 133 198 1 6 10 35 18 65 26 92 23 218 -6 313 -47 151 -158 286 -286
347 -39 19 -94 41 -100 41 -2 0 -17 5 -35 10 -62 20 -198 18 -277 -2z"/>
<path d="M4075 2769 c-22 -5 -49 -13 -60 -18 -11 -5 -38 -17 -60 -26 -138 -61
-250 -187 -309 -350 -17 -45 -32 -164 -24 -179 5 -10 5 -16 0 -16 -8 0 -5 -32
13 -115 17 -82 77 -196 138 -262 65 -70 204 -153 282 -169 110 -22 156 -23
246 -8 70 12 188 58 228 88 8 6 46 43 85 81 77 76 128 163 152 260 4 17 9 37
11 45 7 27 6 165 -2 200 -43 213 -186 378 -392 451 -65 24 -239 34 -308 18z"/>
</g>
</svg>
